<svg xmlns="http://www.w3.org/2000/svg" width="1600" height="1280" viewBox="0 0 1600 1280" fill="none">
  <defs>
    <linearGradient id="bg" x1="0" y1="0" x2="1600" y2="1280" gradientUnits="userSpaceOnUse">
      <stop stop-color="#F7F9FF"/>
      <stop offset="1" stop-color="#EEF3FF"/>
    </linearGradient>
    <linearGradient id="accent" x1="0" y1="0" x2="1" y2="1">
      <stop stop-color="#4C63FF"/>
      <stop offset="1" stop-color="#2A46F5"/>
    </linearGradient>
    <filter id="shadow" x="-20%" y="-20%" width="140%" height="140%">
      <feDropShadow dx="0" dy="16" stdDeviation="20" flood-color="#2F4FD1" flood-opacity="0.12"/>
    </filter>
    <style>
      .title { font: 700 42px 'Microsoft YaHei UI', 'Segoe UI', sans-serif; fill: #18233F; }
      .subtitle { font: 400 18px 'Microsoft YaHei UI', 'Segoe UI', sans-serif; fill: #677393; }
      .section { font: 700 18px 'Microsoft YaHei UI', 'Segoe UI', sans-serif; fill: #27314F; }
      .label { font: 700 14px 'Microsoft YaHei UI', 'Segoe UI', sans-serif; fill: #4A5C93; letter-spacing: 1px; }
      .body { font: 400 15px 'Microsoft YaHei UI', 'Segoe UI', sans-serif; fill: #5E6A88; }
      .small { font: 400 13px 'Microsoft YaHei UI', 'Segoe UI', sans-serif; fill: #7280A4; }
      .chip { font: 700 12px 'Microsoft YaHei UI', 'Segoe UI', sans-serif; fill: #5271FF; }
      .strong { font: 700 16px 'Microsoft YaHei UI', 'Segoe UI', sans-serif; fill: #1C2742; }
      .tiny { font: 700 11px 'Microsoft YaHei UI', 'Segoe UI', sans-serif; fill: #8693B3; letter-spacing: 1px; }
    </style>
  </defs>

  <rect width="1600" height="1280" rx="0" fill="url(#bg)"/>

  <text x="72" y="84" class="title">工具箱页复刻设计</text>
  <text x="72" y="118" class="subtitle">目标：替换现有 workspace -&gt; toolbox，版式贴近参考图，条目内容映射项目真实语义，数据以新结构为主并保留旧 Markdown 迁移层。</text>

  <rect x="72" y="156" width="452" height="250" rx="28" fill="#FFFFFF" stroke="#DCE5FF" filter="url(#shadow)"/>
  <rect x="96" y="186" width="84" height="30" rx="15" fill="#EEF2FF"/>
  <text x="118" y="206" class="chip">方案 A</text>
  <text x="96" y="252" class="section">单文件内联重写</text>
  <text x="96" y="286" class="body">直接在现有 workspace/index.ts 里重做工具箱页，服务端也继续沿用现有接口补字段。</text>
  <text x="96" y="330" class="label">优点</text>
  <text x="96" y="356" class="body">改动路径最短，能最快接上线。</text>
  <text x="96" y="392" class="label">问题</text>
  <text x="96" y="418" class="body">现有文件已经偏大，继续堆叠后续很难维护。</text>

  <rect x="574" y="156" width="452" height="250" rx="28" fill="#FFFFFF" stroke="#5470FF" stroke-width="2.5" filter="url(#shadow)"/>
  <rect x="598" y="186" width="84" height="30" rx="15" fill="#E8ECFF"/>
  <text x="620" y="206" class="chip">方案 B</text>
  <text x="598" y="252" class="section">模块化替换，保留原入口</text>
  <text x="598" y="286" class="body">入口仍是 workspace -&gt; toolbox，但工具箱页拆成独立前端模块、独立 view-model 和迁移层。</text>
  <text x="598" y="330" class="label">优点</text>
  <text x="598" y="356" class="body">满足直接替换，同时避免把 workspace 主文件继续拖垮。</text>
  <text x="598" y="392" class="label">推荐原因</text>
  <text x="598" y="418" class="body">这是最短正确路径，不是补丁，也不会引入双页面和双状态。</text>
  <rect x="902" y="184" width="92" height="34" rx="17" fill="url(#accent)"/>
  <text x="928" y="206" style="font:700 13px 'Microsoft YaHei UI','Segoe UI',sans-serif; fill:#FFFFFF;">推荐</text>

  <rect x="1076" y="156" width="452" height="250" rx="28" fill="#FFFFFF" stroke="#DCE5FF" filter="url(#shadow)"/>
  <rect x="1100" y="186" width="84" height="30" rx="15" fill="#EEF2FF"/>
  <text x="1122" y="206" class="chip">方案 C</text>
  <text x="1100" y="252" class="section">新页面再嵌回 workspace</text>
  <text x="1100" y="286" class="body">先独立做一套完整新页面，再通过 iframe 或注入方式塞回现有入口。</text>
  <text x="1100" y="330" class="label">优点</text>
  <text x="1100" y="356" class="body">最自由，做 1:1 外观最快。</text>
  <text x="1100" y="392" class="label">问题</text>
  <text x="1100" y="418" class="body">长期会有双结构和双状态，维护成本最高。</text>

  <text x="72" y="486" class="label">推荐落地稿</text>
  <text x="72" y="518" class="subtitle">下面是按方案 B 组织后的首页草图：保留参考图的结构关系，但条目语义映射到你项目真实的工具箱内容。</text>

  <rect x="72" y="554" width="1456" height="570" rx="34" fill="#FFFFFF" stroke="#D8E2FF" filter="url(#shadow)"/>

  <text x="114" y="626" class="title" style="font-size:34px;">工具箱</text>
  <text x="114" y="658" class="subtitle" style="font-size:17px;">按工作流与工具资产组织常用能力，让编译、整理、检索与发布路径更清晰。</text>

  <rect x="970" y="588" width="346" height="64" rx="20" fill="#F8FAFF" stroke="#DEE6FF"/>
  <circle cx="1008" cy="620" r="11" stroke="#7A88AF" stroke-width="3"/>
  <line x1="1016" y1="628" x2="1026" y2="638" stroke="#7A88AF" stroke-width="3" stroke-linecap="round"/>
  <text x="1042" y="628" class="body">搜索工具 / 工作流</text>

  <circle cx="1386" cy="620" r="13" stroke="#42527A" stroke-width="2.5"/>
  <circle cx="1397" cy="608" r="5" fill="#FF4D4F"/>
  <circle cx="1450" cy="620" r="24" fill="#DDE6FF"/>
  <text x="1488" y="626" class="strong">你的项目</text>

  <rect x="114" y="700" width="622" height="62" rx="20" fill="#F7F9FF" stroke="#DCE5FF"/>
  <rect x="118" y="704" width="306" height="54" rx="18" fill="url(#accent)"/>
  <text x="230" y="738" style="font:700 18px 'Microsoft YaHei UI','Segoe UI',sans-serif; fill:#FFFFFF;">工作流</text>
  <text x="525" y="738" class="section">工具资产</text>

  <rect x="114" y="790" width="1000" height="286" rx="24" fill="#FFFFFF" stroke="#E0E7FF"/>
  <text x="142" y="832" class="section">工作流</text>
  <text x="142" y="858" class="small">工作流 = 场景，Agent = 执行者</text>
  <rect x="400" y="840" width="268" height="28" rx="14" fill="#EEF2FF"/>
  <text x="420" y="858" class="small">每条工作流都由一个专属 Agent 执行</text>

  <rect x="142" y="890" width="438" height="58" rx="18" fill="#FBFCFF" stroke="#E4EAFF"/>
  <circle cx="176" cy="919" r="16" fill="#EEEAFE"/>
  <text x="206" y="925" class="strong">资料收集流</text>
  <text x="404" y="925" class="chip">1:1</text>
  <text x="464" y="925" class="chip">→</text>
  <text x="514" y="925" class="strong">收集 Agent</text>

  <rect x="142" y="962" width="438" height="58" rx="18" fill="#FBFCFF" stroke="#E4EAFF"/>
  <circle cx="176" cy="991" r="16" fill="#EAF2FF"/>
  <text x="206" y="997" class="strong">内容整理流</text>
  <text x="404" y="997" class="chip">1:1</text>
  <text x="464" y="997" class="chip">→</text>
  <text x="514" y="997" class="strong">整理 Agent</text>

  <rect x="614" y="890" width="438" height="58" rx="18" fill="#FBFCFF" stroke="#E4EAFF"/>
  <circle cx="648" cy="919" r="16" fill="#FFF0EB"/>
  <text x="678" y="925" class="strong">编译发布流</text>
  <text x="876" y="925" class="chip">1:1</text>
  <text x="936" y="925" class="chip">→</text>
  <text x="986" y="925" class="strong">发布 Agent</text>

  <rect x="614" y="962" width="438" height="58" rx="18" fill="#FBFCFF" stroke="#E4EAFF"/>
  <circle cx="648" cy="991" r="16" fill="#EAFBF6"/>
  <text x="678" y="997" class="strong">检索问答流</text>
  <text x="876" y="997" class="chip">1:1</text>
  <text x="936" y="997" class="chip">→</text>
  <text x="986" y="997" class="strong">检索 Agent</text>

  <rect x="1154" y="700" width="332" height="428" rx="24" fill="#FFFFFF" stroke="#E0E7FF"/>
  <text x="1184" y="742" class="section">最近运行的 Agent</text>
  <text x="1420" y="742" class="chip">查看全部</text>

  <circle cx="1208" cy="786" r="16" fill="#DFF5EB"/>
  <text x="1238" y="792" class="strong">收集 Agent</text>
  <text x="1404" y="792" class="small">2 分钟前</text>

  <circle cx="1208" cy="834" r="16" fill="#FCE8EF"/>
  <text x="1238" y="840" class="strong">整理 Agent</text>
  <text x="1404" y="840" class="small">15 分钟前</text>

  <circle cx="1208" cy="882" r="16" fill="#E5EEFF"/>
  <text x="1238" y="888" class="strong">发布 Agent</text>
  <text x="1404" y="888" class="small">1 小时前</text>

  <circle cx="1208" cy="930" r="16" fill="#FFF2DE"/>
  <text x="1238" y="936" class="strong">检索 Agent</text>
  <text x="1404" y="936" class="small">昨天 16:20</text>

  <text x="1184" y="1002" class="section">收藏夹 / 快捷入口</text>
  <text x="1184" y="1040" class="body">想法速记</text>
  <text x="1436" y="1040" class="small">☆</text>
  <text x="1184" y="1074" class="body">编译发布模板</text>
  <text x="1436" y="1074" class="small">☆</text>

  <rect x="114" y="1098" width="1000" height="0" stroke="#E8EDFF"/>

  <rect x="114" y="1098" width="1000" height="0" opacity="0"/>

  <rect x="114" y="1098" width="1000" height="0" opacity="0"/>

  <rect x="114" y="1098" width="1000" height="0" opacity="0"/>

  <rect x="114" y="1098" width="1000" height="0" opacity="0"/>

  <rect x="114" y="1098" width="1000" height="0" opacity="0"/>

  <rect x="114" y="1098" width="1000" height="0" opacity="0"/>

  <rect x="114" y="1098" width="1000" height="0" opacity="0"/>

  <rect x="114" y="1098" width="1000" height="0" opacity="0"/>

  <rect x="114" y="1098" width="1000" height="0" opacity="0"/>

  <rect x="114" y="1098" width="1000" height="0" opacity="0"/>

  <text x="142" y="1114" class="section">工具资产</text>
  <rect x="274" y="1096" width="66" height="28" rx="14" fill="#EEF2FF"/>
  <text x="293" y="1114" class="small">全部</text>
  <rect x="352" y="1096" width="66" height="28" rx="14" fill="#F7F9FF" stroke="#DCE5FF"/>
  <text x="371" y="1114" class="small">软件</text>
  <rect x="430" y="1096" width="66" height="28" rx="14" fill="#F7F9FF" stroke="#DCE5FF"/>
  <text x="449" y="1114" class="small">模板</text>

  <rect x="142" y="1138" width="214" height="0" opacity="0"/>

  <rect x="142" y="1146" width="214" height="0" opacity="0"/>

  <rect x="142" y="1136" width="214" height="0" opacity="0"/>

  <rect x="142" y="1142" width="214" height="0" opacity="0"/>

  <rect x="142" y="1144" width="214" height="0" opacity="0"/>

  <rect x="142" y="1148" width="214" height="0" opacity="0"/>

  <rect x="142" y="1128" width="950" height="110" rx="24" fill="#F9FBFF" stroke="#E6ECFF"/>
  <rect x="160" y="1148" width="170" height="72" rx="18" fill="#FFFFFF" stroke="#E5EBFF"/>
  <rect x="346" y="1148" width="170" height="72" rx="18" fill="#FFFFFF" stroke="#E5EBFF"/>
  <rect x="532" y="1148" width="170" height="72" rx="18" fill="#FFFFFF" stroke="#E5EBFF"/>
  <rect x="718" y="1148" width="170" height="72" rx="18" fill="#FFFFFF" stroke="#E5EBFF"/>
  <rect x="904" y="1148" width="170" height="72" rx="18" fill="#FFFFFF" stroke="#E5EBFF"/>

  <text x="178" y="1180" class="strong">Figma</text>
  <text x="178" y="1206" class="small">界面设计与原型协作</text>
  <text x="364" y="1180" class="strong">ChatGPT</text>
  <text x="364" y="1206" class="small">对话与内容生成</text>
  <text x="550" y="1180" class="strong">编译模板</text>
  <text x="550" y="1206" class="small">发布结构复用</text>
  <text x="736" y="1180" class="strong">检索清单</text>
  <text x="736" y="1206" class="small">搜索与核查流程</text>
  <text x="922" y="1180" class="strong">项目拆解模版</text>
  <text x="922" y="1206" class="small">任务分解与推进</text>
</svg>
