<svg width="1600" height="900" viewBox="0 0 1600 900" fill="none" xmlns="http://www.w3.org/2000/svg">
  <rect width="1600" height="900" rx="28" fill="#F6F4EF"/>
  <rect x="42" y="42" width="88" height="816" rx="28" fill="#FFFFFF" stroke="#E6E1D6" stroke-width="2"/>
  <rect x="62" y="82" width="48" height="48" rx="16" fill="#1F5EFF"/>
  <rect x="62" y="162" width="48" height="48" rx="16" fill="#F1EFE8"/>
  <rect x="62" y="242" width="48" height="48" rx="16" fill="#F1EFE8"/>
  <rect x="62" y="322" width="48" height="48" rx="16" fill="#F1EFE8"/>
  <rect x="62" y="402" width="48" height="48" rx="16" fill="#EAF0FF"/>
  <rect x="62" y="778" width="48" height="48" rx="16" fill="#F1EFE8"/>

  <rect x="162" y="54" width="1396" height="116" rx="30" fill="#FFFFFF" stroke="#E6E1D6" stroke-width="2"/>
  <text x="204" y="98" fill="#1F5EFF" font-family="Segoe UI, Microsoft YaHei UI, sans-serif" font-size="18" font-weight="700" letter-spacing="2">FLASH DIARY</text>
  <text x="204" y="142" fill="#1D1D1B" font-family="Segoe UI, Microsoft YaHei UI, sans-serif" font-size="48" font-weight="700">闪念日记</text>
  <text x="204" y="184" fill="#686258" font-family="Segoe UI, Microsoft YaHei UI, sans-serif" font-size="20">左侧新增置顶 Memory 卡片；选中后右侧切到渲染阅读与评论模式，普通日记仍然直接编辑 raw Markdown。</text>
  <rect x="1292" y="84" width="218" height="44" rx="22" fill="#EAF0FF"/>
  <text x="1334" y="112" fill="#1F5EFF" font-family="Segoe UI, Microsoft YaHei UI, sans-serif" font-size="16" font-weight="700">Memory Snapshot</text>

  <rect x="162" y="196" width="360" height="634" rx="28" fill="#FFFFFF" stroke="#E6E1D6" stroke-width="2"/>
  <text x="194" y="242" fill="#1D1D1B" font-family="Segoe UI, Microsoft YaHei UI, sans-serif" font-size="28" font-weight="700">以往日记</text>
  <rect x="410" y="218" width="82" height="36" rx="18" fill="#F1EFE8"/>
  <text x="434" y="242" fill="#5B564E" font-family="Segoe UI, Microsoft YaHei UI, sans-serif" font-size="15" font-weight="700">刷新</text>

  <rect x="194" y="278" width="296" height="118" rx="22" fill="#EAF0FF" stroke="#C9D8FF" stroke-width="2"/>
  <text x="220" y="320" fill="#1D1D1B" font-family="Segoe UI, Microsoft YaHei UI, sans-serif" font-size="25" font-weight="700">Memory</text>
  <text x="220" y="352" fill="#4B5F99" font-family="Segoe UI, Microsoft YaHei UI, sans-serif" font-size="17">根据日记沉淀的长期记忆</text>
  <text x="220" y="382" fill="#5B564E" font-family="Segoe UI, Microsoft YaHei UI, sans-serif" font-size="16">更新于 2026/04/24 08:16</text>

  <rect x="194" y="414" width="296" height="102" rx="22" fill="#FCFBF8" stroke="#E6E1D6" stroke-width="2"/>
  <text x="220" y="458" fill="#1D1D1B" font-family="Segoe UI, Microsoft YaHei UI, sans-serif" font-size="24" font-weight="700">2026-04-24</text>
  <text x="220" y="490" fill="#686258" font-family="Segoe UI, Microsoft YaHei UI, sans-serif" font-size="18">3 条记录</text>

  <rect x="194" y="534" width="296" height="102" rx="22" fill="#FCFBF8" stroke="#E6E1D6" stroke-width="2"/>
  <text x="220" y="578" fill="#1D1D1B" font-family="Segoe UI, Microsoft YaHei UI, sans-serif" font-size="24" font-weight="700">2026-04-23</text>
  <text x="220" y="610" fill="#686258" font-family="Segoe UI, Microsoft YaHei UI, sans-serif" font-size="18">5 条记录</text>

  <rect x="194" y="654" width="296" height="102" rx="22" fill="#FCFBF8" stroke="#E6E1D6" stroke-width="2"/>
  <text x="220" y="698" fill="#1D1D1B" font-family="Segoe UI, Microsoft YaHei UI, sans-serif" font-size="24" font-weight="700">2026-04-22</text>
  <text x="220" y="730" fill="#686258" font-family="Segoe UI, Microsoft YaHei UI, sans-serif" font-size="18">2 条记录</text>

  <rect x="548" y="196" width="1010" height="634" rx="28" fill="#FFFFFF" stroke="#E6E1D6" stroke-width="2"/>
  <text x="584" y="242" fill="#1D1D1B" font-family="Segoe UI, Microsoft YaHei UI, sans-serif" font-size="28" font-weight="700">Memory</text>
  <text x="584" y="276" fill="#686258" font-family="Segoe UI, Microsoft YaHei UI, sans-serif" font-size="18">2026/04/24 08:16:05 · 已处理到 2026-04-23</text>
  <rect x="1310" y="214" width="114" height="40" rx="20" fill="#F1EFE8"/>
  <text x="1334" y="240" fill="#5B564E" font-family="Segoe UI, Microsoft YaHei UI, sans-serif" font-size="15" font-weight="700">刷新 Memory</text>
  <rect x="1440" y="214" width="78" height="40" rx="20" fill="#1F5EFF"/>
  <text x="1465" y="240" fill="#FFFFFF" font-family="Segoe UI, Microsoft YaHei UI, sans-serif" font-size="16" font-weight="700">评论</text>

  <rect x="584" y="302" width="584" height="486" rx="24" fill="#FCFBF8" stroke="#E6E1D6" stroke-width="2"/>
  <text x="616" y="348" fill="#1D1D1B" font-family="Georgia, serif" font-size="30" font-weight="700"># Memory</text>
  <text x="616" y="398" fill="#1D1D1B" font-family="Georgia, serif" font-size="22" font-weight="700">## 人物与关系</text>
  <text x="616" y="432" fill="#686258" font-family="Segoe UI, Microsoft YaHei UI, sans-serif" font-size="19">- 对资源分享、关系边界和主动性持续敏感，容易反复推敲互动中的界限。</text>
  <text x="616" y="486" fill="#1D1D1B" font-family="Georgia, serif" font-size="22" font-weight="700">## 项目与系统</text>
  <text x="616" y="520" fill="#686258" font-family="Segoe UI, Microsoft YaHei UI, sans-serif" font-size="19">- 想把闪念日记逐步沉淀成像 OpenClaw Memory 那样可持续更新的长期页面。</text>
  <text x="616" y="574" fill="#1D1D1B" font-family="Georgia, serif" font-size="22" font-weight="700">## 方法论与偏好</text>
  <text x="616" y="608" fill="#686258" font-family="Segoe UI, Microsoft YaHei UI, sans-serif" font-size="19">- 更偏好从实际使用中反推工具结构，而不是先看完整教程再上手。</text>
  <text x="616" y="662" fill="#1D1D1B" font-family="Georgia, serif" font-size="22" font-weight="700">## 来源范围</text>
  <text x="616" y="696" fill="#686258" font-family="Segoe UI, Microsoft YaHei UI, sans-serif" font-size="19">- 2026-04-18 ~ 2026-04-23 的 raw/闪念日记</text>

  <rect x="1194" y="302" width="334" height="486" rx="24" fill="#F7F3EA" stroke="#E6E1D6" stroke-width="2"/>
  <text x="1224" y="342" fill="#9A6B08" font-family="Segoe UI, Microsoft YaHei UI, sans-serif" font-size="14" font-weight="700" letter-spacing="1.5">COMMENTS</text>
  <text x="1224" y="374" fill="#1D1D1B" font-family="Segoe UI, Microsoft YaHei UI, sans-serif" font-size="26" font-weight="700">评论</text>
  <rect x="1432" y="330" width="72" height="32" rx="16" fill="#FFFFFF"/>
  <text x="1454" y="351" fill="#5B564E" font-family="Segoe UI, Microsoft YaHei UI, sans-serif" font-size="14" font-weight="700">关闭</text>
  <text x="1224" y="412" fill="#686258" font-family="Segoe UI, Microsoft YaHei UI, sans-serif" font-size="16">这里直接评论 wiki/journal-memory.md，AI 自动解决会写回源文件。</text>

  <rect x="1224" y="446" width="274" height="146" rx="18" fill="#FFFFFF" stroke="#DDD4C3" stroke-width="2"/>
  <text x="1244" y="480" fill="#5B564E" font-family="Georgia, serif" font-size="17">“更偏好从实际使用中反推工具结构”</text>
  <text x="1244" y="520" fill="#686258" font-family="Segoe UI, Microsoft YaHei UI, sans-serif" font-size="16">可以补一句：遇到复杂软件时，会先搭一个能跑的最小版本，再通过真实工作暴露结构需求。</text>
  <rect x="1244" y="548" width="66" height="30" rx="15" fill="#F1EFE8"/>
  <text x="1264" y="568" fill="#5B564E" font-family="Segoe UI, Microsoft YaHei UI, sans-serif" font-size="13" font-weight="700">保存</text>
  <rect x="1320" y="548" width="66" height="30" rx="15" fill="#F1EFE8"/>
  <text x="1340" y="568" fill="#5B564E" font-family="Segoe UI, Microsoft YaHei UI, sans-serif" font-size="13" font-weight="700">解决</text>
  <rect x="1396" y="548" width="90" height="30" rx="15" fill="#EAF0FF"/>
  <text x="1415" y="568" fill="#1F5EFF" font-family="Segoe UI, Microsoft YaHei UI, sans-serif" font-size="13" font-weight="700">AI 自动解决</text>

  <rect x="1224" y="620" width="274" height="116" rx="18" fill="#FFFFFF" stroke="#DDD4C3" stroke-width="2"/>
  <text x="1244" y="656" fill="#686258" font-family="Segoe UI, Microsoft YaHei UI, sans-serif" font-size="16">已加载 2 条评论。当前 Memory 页面会在下次打开时继续基于现有内容增量更新。</text>
</svg>
