<svg width="1440" height="760" viewBox="0 0 1440 760" xmlns="http://www.w3.org/2000/svg">
  <defs>
    <linearGradient id="bg" x1="0" y1="0" x2="1" y2="1">
      <stop offset="0%" stop-color="#f8fbff"/>
      <stop offset="55%" stop-color="#f8f7ff"/>
      <stop offset="100%" stop-color="#edf4ff"/>
    </linearGradient>
    <linearGradient id="hero" x1="0" y1="0" x2="1" y2="1">
      <stop offset="0%" stop-color="#eef5ff"/>
      <stop offset="100%" stop-color="#dfe9ff"/>
    </linearGradient>
    <linearGradient id="logo" x1="0" y1="0" x2="1" y2="1">
      <stop offset="0%" stop-color="#7e82ff"/>
      <stop offset="100%" stop-color="#4fa8ff"/>
    </linearGradient>
    <filter id="shadow" x="-20%" y="-20%" width="140%" height="140%">
      <feDropShadow dx="0" dy="10" stdDeviation="14" flood-color="#8da7e7" flood-opacity="0.16"/>
    </filter>
  </defs>

  <rect width="1440" height="760" fill="url(#bg)"/>

  <rect x="0" y="0" width="1440" height="56" fill="#ffffff" fill-opacity="0.92"/>
  <line x1="0" y1="56" x2="1440" y2="56" stroke="#e6ebf7"/>

  <g transform="translate(24,10)">
    <circle cx="18" cy="18" r="18" fill="url(#logo)"/>
    <text x="18" y="24" text-anchor="middle" font-size="21" font-weight="700" fill="#ffffff">S</text>
    <text x="54" y="16" font-size="16" font-weight="700" fill="#1b2742">小松的个人知识库</text>
    <text x="54" y="34" font-size="11" fill="#73809a">记录成长 · 沉淀价值 · 连接未来</text>
  </g>

  <g transform="translate(968,15)">
    <text x="0" y="16" font-size="14" font-weight="700" fill="#2963ff">首页</text>
    <line x1="-8" y1="28" x2="46" y2="28" stroke="#2963ff" stroke-width="2.5" stroke-linecap="round"/>
    <text x="88" y="16" font-size="14" fill="#44536e">时间线</text>
    <text x="190" y="16" font-size="14" fill="#44536e">成果库</text>
    <text x="282" y="16" font-size="14" fill="#44536e">能力</text>
    <text x="352" y="16" font-size="14" fill="#44536e">简历</text>
    <circle cx="434" cy="12" r="14" fill="#f5f7ff" stroke="#dae3f6"/>
    <path d="M429 12a5 5 0 1 0 10 0 5 5 0 1 1-10 0" fill="#243149"/>
  </g>

  <g filter="url(#shadow)">
    <rect x="20" y="72" width="1400" height="124" rx="22" fill="url(#hero)" stroke="#d6e2fb"/>
  </g>

  <g transform="translate(44,89)">
    <circle cx="52" cy="45" r="42" fill="#ffffff" stroke="#dce5f8" stroke-width="4"/>
    <circle cx="52" cy="45" r="32" fill="#dfe9ff"/>
    <circle cx="52" cy="35" r="13" fill="#ffd9c9"/>
    <path d="M36 69 C40 53, 64 53, 68 69" fill="#5c86d8"/>
    <path d="M40 25 C46 16, 60 16, 65 29 C57 24, 49 23, 40 25" fill="#20283a"/>
    <circle cx="47" cy="35" r="1.8" fill="#222b3f"/>
    <circle cx="57" cy="35" r="1.8" fill="#222b3f"/>
  </g>

  <g transform="translate(152,92)">
    <text x="0" y="28" font-size="24" font-weight="800" fill="#111a2f">小松 Xiaosong</text>
    <text x="0" y="52" font-size="13" fill="#3a4866">学生 / 个人知识库搭建者 / 自动化系统爱好者</text>
    <text x="0" y="80" font-size="14" fill="#5c6f99">用时间线记录成长，用成果库展示能力。</text>

    <g transform="translate(0,91)">
      <rect x="0" y="0" width="76" height="22" rx="11" fill="#f5f8ff" stroke="#dbe6ff"/>
      <text x="38" y="15" text-anchor="middle" font-size="11" font-weight="700" fill="#2c67ff">学习成长</text>

      <rect x="84" y="0" width="76" height="22" rx="11" fill="#faf5ff" stroke="#eadcff"/>
      <text x="122" y="15" text-anchor="middle" font-size="11" font-weight="700" fill="#7a52ff">项目实践</text>

      <rect x="168" y="0" width="76" height="22" rx="11" fill="#fff8ef" stroke="#ffe2bf"/>
      <text x="206" y="15" text-anchor="middle" font-size="11" font-weight="700" fill="#ff8d26">竞赛答辩</text>

      <rect x="252" y="0" width="76" height="22" rx="11" fill="#f2fff6" stroke="#d6f0de"/>
      <text x="290" y="15" text-anchor="middle" font-size="11" font-weight="700" fill="#1ca55a">个人品牌</text>
    </g>
  </g>

  <g transform="translate(930,92)" filter="url(#shadow)">
    <rect x="0" y="0" width="454" height="96" rx="20" fill="#ffffff" fill-opacity="0.8" stroke="#dde6fb"/>
    <line x1="113.5" y1="18" x2="113.5" y2="78" stroke="#e7edf9"/>
    <line x1="227" y1="18" x2="227" y2="78" stroke="#e7edf9"/>
    <line x1="340.5" y1="18" x2="340.5" y2="78" stroke="#e7edf9"/>

    <g transform="translate(26,16)">
      <text x="30" y="14" text-anchor="middle" font-size="19" fill="#3568ff">⌘</text>
      <text x="30" y="46" text-anchor="middle" font-size="20" font-weight="800" fill="#15233f">320+</text>
      <text x="30" y="66" text-anchor="middle" font-size="11" fill="#6b7892">知识笔记</text>
    </g>
    <g transform="translate(139,16)">
      <text x="30" y="14" text-anchor="middle" font-size="19" fill="#3568ff">▣</text>
      <text x="30" y="46" text-anchor="middle" font-size="20" font-weight="800" fill="#15233f">28+</text>
      <text x="30" y="66" text-anchor="middle" font-size="11" fill="#6b7892">项目文件</text>
    </g>
    <g transform="translate(252,16)">
      <text x="30" y="14" text-anchor="middle" font-size="19" fill="#ffad21">⌂</text>
      <text x="30" y="46" text-anchor="middle" font-size="20" font-weight="800" fill="#15233f">16+</text>
      <text x="30" y="66" text-anchor="middle" font-size="11" fill="#6b7892">获奖荣誉</text>
    </g>
    <g transform="translate(365,16)">
      <text x="30" y="14" text-anchor="middle" font-size="19" fill="#3568ff">◫</text>
      <text x="30" y="46" text-anchor="middle" font-size="20" font-weight="800" fill="#15233f">900+</text>
      <text x="30" y="66" text-anchor="middle" font-size="11" fill="#6b7892">成长天数</text>
    </g>
  </g>

  <g transform="translate(20,216)">
    <g filter="url(#shadow)">
      <rect x="0" y="0" width="1000" height="504" rx="24" fill="#ffffff" stroke="#e4eaf8"/>
    </g>
    <text x="20" y="36" font-size="20" font-weight="800" fill="#1c2740">成果库</text>

    <g transform="translate(20,56)" filter="url(#shadow)">
      <rect x="0" y="0" width="306" height="192" rx="20" fill="#ffffff" stroke="#e6ecf8"/>
      <text x="16" y="28" font-size="16" font-weight="800" fill="#20304b">竞赛奖项</text>
      <text x="246" y="28" font-size="12" font-weight="700" fill="#4570ff">查看全部</text>
      <rect x="16" y="42" width="274" height="48" rx="12" fill="#fbfcff" stroke="#edf1fb"/>
      <text x="28" y="62" font-size="13" font-weight="700" fill="#283754">三创赛 校级一等奖</text>
      <text x="28" y="80" font-size="11" fill="#72809a">创新创业类大赛</text>
      <rect x="16" y="98" width="274" height="48" rx="12" fill="#fbfcff" stroke="#edf1fb"/>
      <text x="28" y="118" font-size="13" font-weight="700" fill="#283754">数学建模竞赛 二等奖</text>
      <text x="28" y="136" font-size="11" fill="#72809a">校级数学建模竞赛</text>
      <rect x="16" y="154" width="274" height="24" rx="12" fill="#f9fbff" stroke="#eef2fb"/>
      <text x="28" y="171" font-size="10" fill="#2ea95c">创新创业 · 团队合作 · 表达展示</text>
    </g>

    <g transform="translate(346,56)" filter="url(#shadow)">
      <rect x="0" y="0" width="306" height="192" rx="20" fill="#ffffff" stroke="#e6ecf8"/>
      <text x="16" y="28" font-size="16" font-weight="800" fill="#20304b">项目作品</text>
      <text x="246" y="28" font-size="12" font-weight="700" fill="#4570ff">查看全部</text>
      <rect x="16" y="42" width="274" height="48" rx="12" fill="#fbfcff" stroke="#edf1fb"/>
      <rect x="24" y="50" width="42" height="32" rx="7" fill="#dfe8ff"/>
      <text x="78" y="62" font-size="13" font-weight="700" fill="#283754">飞书记录系统</text>
      <text x="78" y="80" font-size="11" fill="#72809a">协同记录与自动化</text>
      <rect x="16" y="98" width="274" height="48" rx="12" fill="#fbfcff" stroke="#edf1fb"/>
      <rect x="24" y="106" width="42" height="32" rx="7" fill="#e8edff"/>
      <text x="78" y="118" font-size="13" font-weight="700" fill="#283754">个人知识库 Web UI</text>
      <text x="78" y="136" font-size="11" fill="#72809a">知识管理与展示</text>
      <rect x="16" y="154" width="274" height="24" rx="12" fill="#f9fbff" stroke="#eef2fb"/>
      <text x="28" y="171" font-size="10" fill="#4570ff">系统设计 · 前端开发 · 数据可视化</text>
    </g>

    <g transform="translate(672,56)" filter="url(#shadow)">
      <rect x="0" y="0" width="306" height="192" rx="20" fill="#ffffff" stroke="#e6ecf8"/>
      <text x="16" y="28" font-size="16" font-weight="800" fill="#20304b">课程成果</text>
      <text x="246" y="28" font-size="12" font-weight="700" fill="#4570ff">查看全部</text>
      <rect x="16" y="42" width="274" height="48" rx="12" fill="#fbfcff" stroke="#edf1fb"/>
      <rect x="24" y="50" width="34" height="32" rx="7" fill="#dfe8ff"/>
      <text x="70" y="62" font-size="13" font-weight="700" fill="#283754">SPSS 统计分析作业</text>
      <text x="70" y="80" font-size="11" fill="#72809a">数据分析与假设检验</text>
      <rect x="16" y="98" width="274" height="48" rx="12" fill="#fbfcff" stroke="#edf1fb"/>
      <rect x="24" y="106" width="34" height="32" rx="7" fill="#e8edff"/>
      <text x="70" y="118" font-size="13" font-weight="700" fill="#283754">商业计划书 PPT</text>
      <text x="70" y="136" font-size="11" fill="#72809a">市场分析与商业模型</text>
      <rect x="16" y="154" width="274" height="24" rx="12" fill="#f9fbff" stroke="#eef2fb"/>
      <text x="28" y="171" font-size="10" fill="#6e5bff">数据分析 · 商业思维 · 报告撰写</text>
    </g>

    <g transform="translate(20,268)" filter="url(#shadow)">
      <rect x="0" y="0" width="306" height="160" rx="20" fill="#ffffff" stroke="#e6ecf8"/>
      <text x="16" y="28" font-size="16" font-weight="800" fill="#20304b">证书与技能</text>
      <rect x="16" y="42" width="274" height="40" rx="12" fill="#fbfcff" stroke="#edf1fb"/>
      <text x="28" y="59" font-size="13" font-weight="700" fill="#283754">英语四级（CET-4）</text>
      <text x="28" y="75" font-size="11" fill="#72809a">成绩：512分</text>
      <rect x="16" y="90" width="274" height="40" rx="12" fill="#fbfcff" stroke="#edf1fb"/>
      <text x="28" y="107" font-size="13" font-weight="700" fill="#283754">Office / SPSS</text>
      <text x="28" y="123" font-size="11" fill="#72809a">办公与统计工具</text>
    </g>

    <g transform="translate(346,268)" filter="url(#shadow)">
      <rect x="0" y="0" width="306" height="160" rx="20" fill="#ffffff" stroke="#e6ecf8"/>
      <text x="16" y="28" font-size="16" font-weight="800" fill="#20304b">公开表达</text>
      <rect x="16" y="42" width="274" height="40" rx="12" fill="#fbfcff" stroke="#edf1fb"/>
      <text x="28" y="59" font-size="13" font-weight="700" fill="#283754">答辩演讲</text>
      <text x="28" y="75" font-size="11" fill="#72809a">项目结题答辩汇报</text>
      <rect x="16" y="90" width="274" height="40" rx="12" fill="#fbfcff" stroke="#edf1fb"/>
      <text x="28" y="107" font-size="13" font-weight="700" fill="#283754">经验分享</text>
      <text x="28" y="123" font-size="11" fill="#72809a">学习方法主题分享</text>
    </g>

    <g transform="translate(672,268)" filter="url(#shadow)">
      <rect x="0" y="0" width="306" height="160" rx="20" fill="#ffffff" stroke="#e6ecf8"/>
      <text x="16" y="28" font-size="16" font-weight="800" fill="#20304b">长期作品集</text>
      <rect x="16" y="42" width="274" height="40" rx="12" fill="#fbfcff" stroke="#edf1fb"/>
      <text x="28" y="59" font-size="13" font-weight="700" fill="#283754">日记时间线</text>
      <text x="28" y="75" font-size="11" fill="#72809a">Daily Timeline 记录</text>
      <rect x="16" y="90" width="274" height="40" rx="12" fill="#fbfcff" stroke="#edf1fb"/>
      <text x="28" y="107" font-size="13" font-weight="700" fill="#283754">第二大脑搭建记录</text>
      <text x="28" y="123" font-size="11" fill="#72809a">知识体系与工具沉淀</text>
    </g>

    <g transform="translate(20,448)" filter="url(#shadow)">
      <rect x="0" y="0" width="958" height="40" rx="16" fill="#ffffff" stroke="#e6ecf8"/>
      <text x="16" y="25" font-size="13" font-weight="700" fill="#28415e">代表能力：</text>
      <text x="104" y="25" font-size="12" fill="#4770ff">结构化表达</text>
      <text x="230" y="25" font-size="12" fill="#4770ff">项目推进</text>
      <text x="338" y="25" font-size="12" fill="#4770ff">信息整理</text>
      <text x="446" y="25" font-size="12" fill="#4770ff">页面设计</text>
      <text x="554" y="25" font-size="12" fill="#4770ff">自动化思维</text>
    </g>
  </g>

  <g transform="translate(1040,216)">
    <g filter="url(#shadow)">
      <rect x="0" y="0" width="380" height="316" rx="24" fill="#ffffff" stroke="#e4eaf8"/>
    </g>
    <text x="24" y="34" font-size="18" font-weight="800" fill="#1c2740">人生时间线</text>
    <line x1="46" y1="72" x2="46" y2="262" stroke="#dfe6f8" stroke-width="3"/>
    <circle cx="46" cy="92" r="7" fill="#4f7dff"/>
    <text x="70" y="98" font-size="14" fill="#32405d">2014</text>
    <text x="112" y="98" font-size="14" font-weight="700" fill="#20304b">成长起点</text>
    <text x="112" y="116" font-size="12" fill="#72809a">开启学习之旅</text>
    <circle cx="46" cy="140" r="7" fill="#8a69ff"/>
    <text x="70" y="146" font-size="14" fill="#32405d">2020</text>
    <text x="112" y="146" font-size="14" font-weight="700" fill="#20304b">进入大学</text>
    <text x="112" y="164" font-size="12" fill="#72809a">开启独立成长阶段</text>
    <circle cx="46" cy="188" r="7" fill="#4f7dff"/>
    <text x="70" y="194" font-size="14" fill="#32405d">2021</text>
    <text x="112" y="194" font-size="14" font-weight="700" fill="#20304b">系统化记录</text>
    <text x="112" y="212" font-size="12" fill="#72809a">建立知识库习惯</text>
    <circle cx="46" cy="236" r="7" fill="#ff9b2f"/>
    <text x="70" y="242" font-size="14" fill="#32405d">2022</text>
    <text x="112" y="242" font-size="14" font-weight="700" fill="#20304b">竞赛与项目</text>
    <text x="112" y="260" font-size="12" fill="#72809a">在实践中驱动成长</text>

    <g transform="translate(0,340)" filter="url(#shadow)">
      <rect x="0" y="0" width="380" height="190" rx="24" fill="#ffffff" stroke="#e4eaf8"/>
    </g>
    <text x="24" y="372" font-size="18" font-weight="800" fill="#1c2740">对外简历</text>
    <text x="24" y="406" font-size="13" font-weight="700" fill="#2b3d5d">身份</text>
    <text x="92" y="406" font-size="13" fill="#6c7893">学生 / 个人知识库搭建者</text>
    <text x="24" y="438" font-size="13" font-weight="700" fill="#2b3d5d">学校/方向</text>
    <text x="92" y="438" font-size="13" fill="#6c7893">XX大学 · 计算机科学与技术</text>
    <text x="24" y="470" font-size="13" font-weight="700" fill="#2b3d5d">关注主题</text>
    <text x="92" y="470" font-size="13" fill="#6c7893">效率工具 · 知识管理 · 项目实践</text>
    <text x="24" y="502" font-size="13" font-weight="700" fill="#2b3d5d">联系方式</text>
    <text x="92" y="502" font-size="13" fill="#6c7893">Email: xiaosong@example.com</text>
  </g>
</svg>
